<?xml version="1.0" standalone="no"?><!DOCTYPE svg PUBLIC "-//W3C//DTD SVG 1.1//EN" "http://www.w3.org/Graphics/SVG/1.1/DTD/svg11.dtd"><svg t="1744713263419" class="icon" viewBox="0 0 1024 1024" version="1.1" xmlns="http://www.w3.org/2000/svg" p-id="47247" xmlns:xlink="http://www.w3.org/1999/xlink" width="200" height="200"><path d="M864 96a64 64 0 0 1 64 64v704a64 64 0 0 1-64 64H160a64 64 0 0 1-64-64V160a64 64 0 0 1 64-64h704zM448 544H256l-3.744 0.224a32 32 0 0 0-28.032 28.032L224 576l0.224 3.744a32 32 0 0 0 28.032 28.032L256 608h114.72l-131.84 131.872a32 32 0 0 0-2.688 42.24l2.656 3.04a32 32 0 0 0 42.24 2.656l3.04-2.656L416 653.216V768l0.224 3.744a32 32 0 0 0 63.552 0L480 768v-192l-0.224-3.744a32 32 0 0 0-28.032-28.032L448 544z m128-320a32 32 0 0 0-31.776 28.256L544 256v192l0.224 3.744a32 32 0 0 0 28.032 28.032L576 480h192l3.744-0.224a32 32 0 0 0 28.032-28.032L800 448l-0.224-3.744a32 32 0 0 0-28.032-28.032L768 416h-114.784l131.936-131.872a32 32 0 0 0 2.656-42.24l-2.656-3.04a32 32 0 0 0-42.24-2.656l-3.04 2.656L608 370.72V256l-0.224-3.744A32 32 0 0 0 576 224z" fill="#ffffff" p-id="47248"></path></svg>