<?xml version="1.0" encoding="UTF-8"?>
<svg width="24" height="24" viewBox="0 0 24 24" fill="none" xmlns="http://www.w3.org/2000/svg">
  <path d="M7 7h2v10H7V7z" fill="currentColor"/>
  <path d="M14 7h-3.5v10H14c1.66 0 3-1.34 3-3v-4c0-1.66-1.34-3-3-3zm0 6h-1.5V9H14c.55 0 1 .45 1 1v2c0 .55-.45 1-1 1z" fill="currentColor"/>
  <path d="M21.5 10.5c.83 0 1.5.67 1.5 1.5v4c0 .83-.67 1.5-1.5 1.5s-1.5-.67-1.5-1.5v-4c0-.83.67-1.5 1.5-1.5z" fill="#2196F3"/>
  <path d="M19 7v2.5h-2V7h2zm0 9v1h-2v-1h2z" fill="#2196F3"/>
</svg> 