<?xml version="1.0" encoding="UTF-8" standalone="no"?>
<svg xmlns="http://www.w3.org/2000/svg" width="24" height="24" viewBox="0 0 24 24" fill="none" stroke="currentColor" stroke-width="2" stroke-linecap="round" stroke-linejoin="round">
  <!-- 左侧对话气泡 -->
  <path d="M4 16h3.1c.5 0 .9.4 1 .9l.4 1.6c.1.5.5.9 1 .9h.2c.6 0 1-.6.7-1.1L9.6 17c-.4-.7.1-1.5.9-1.5h1c2.2 0 4-1.8 4-4s-1.8-4-4-4H6c-1.1 0-2 .9-2 2v5c0 .6.4 1 1 1z" fill="none" />
  <!-- 右侧对话气泡 -->
  <path d="M14 8h3.6c.7 0 1.3.8.9 1.5l-.9 1.3c-.3.5.1 1.1.7 1.1h.2c.5 0 .9-.4 1-.9l.4-1.6c.1-.5.5-.9 1-.9h.1c.6 0 1-.4 1-1V3c0-1.1-.9-2-2-2h-6c-2.2 0-4 1.8-4 4 0 1.7 1 3.1 2.4 3.7" fill="none" />
  <!-- 三个点，表示对话内容 -->
  <circle cx="8.5" cy="11.5" r="0.8" />
  <circle cx="11.5" cy="11.5" r="0.8" />
  <circle cx="14.5" cy="11.5" r="0.8" />
</svg> 