<?xml version="1.0" encoding="UTF-8"?>
<svg width="24" height="24" viewBox="0 0 24 24" fill="none" xmlns="http://www.w3.org/2000/svg">
  <path d="M14 15l-3.15-3.15A4.9 4.9 0 0 1 7 8.5C7 6.01 9.01 4 11.5 4S16 6.01 16 8.5c0 1.41-.66 2.76-1.85 3.85L11 16v-5h5l-2 2z" fill="currentColor"/>
  <path d="M7 19.17c0 .55.23 1.05.59 1.41.37.36.86.59 1.41.59s1.04-.22 1.4-.57c.37-.37.6-.86.6-1.43 0-.55-.23-1.06-.59-1.42-.36-.36-.85-.58-1.41-.58a2 2 0 0 0-1.42.59c-.36.36-.58.87-.58 1.41z" fill="currentColor"/>
  <rect x="3" y="20" width="18" height="2" fill="#FFC107"/>
</svg> 