<?xml version="1.0" encoding="UTF-8"?>
<svg width="24" height="24" viewBox="0 0 24 24" fill="none" xmlns="http://www.w3.org/2000/svg">
  <path d="M6.85 8.85c-.31-.31-.85-.09-.85.36V11h6v-1.79c0-.45-.54-.67-.85-.35l-.85.85L9.5 8.85l-.8.8-.85-.8zM13 11h5v2h-5v-2zm-2 2H5v-2h6v2zm2 7.07V15h2.13c.71 0 1.37.38 1.74.97 2.3.25 4.12 2.24 4.12 4.64 0 .4-.06.78-.18 1.14-.25.61-.55 1.12-.95 1.53-.17.2-.39.38-.63.55-.25.16-.6.32-1.04.42-.39.11-.8.16-1.19.16-.41 0-.82-.05-1.21-.16-.42-.07-.83-.26-1.18-.55-.76-.36-1.36-1.12-1.61-2.03zm-0.54.49c.21.75.74 1.37 1.39 1.75.25.17.52.29.79.38.34.09.68.13 1.02.13.3 0 .6-.05.88-.12.29-.07.55-.18.77-.32.1-.06.19-.13.29-.21.25-.19.45-.44.62-.7.11-.18.22-.37.3-.59.2-.46.32-.96.32-1.5 0-1.92-1.36-3.52-3.18-3.88-.2-.04-.4-.06-.61-.08-.2 0-.4.01-.6.04-.37.04-.73.14-1.07.3-.9.41-1.61 1.26-1.83 2.32-.05.21-.07.43-.08.65 0 .43.09.84.25 1.21.04.09.08.18.13.27.2.36.45.68.77.95.22.19.47.35.74.47z" fill="currentColor"/>
</svg> 