<?xml version="1.0" encoding="UTF-8"?>
<svg width="20" height="20" viewBox="0 0 20 20" fill="none" xmlns="http://www.w3.org/2000/svg">
  <path d="M10 2C5.58172 2 2 5.58172 2 10C2 14.4183 5.58172 18 10 18C14.4183 18 18 14.4183 18 10C18 5.58172 14.4183 2 10 2Z" stroke="#444444" stroke-width="1.5"/>
  <path d="M7 8.5C7 7.67157 7.67157 7 8.5 7H11.5C12.3284 7 13 7.67157 13 8.5V13.5C13 13.7761 12.7761 14 12.5 14H7.5C7.22386 14 7 13.7761 7 13.5V8.5Z" stroke="#444444" stroke-width="1.5"/>
  <path d="M14 10.5H16" stroke="#444444" stroke-width="1.5" stroke-linecap="round"/>
  <path d="M4 10.5H6" stroke="#444444" stroke-width="1.5" stroke-linecap="round"/>
  <path d="M10 3.5V5.5" stroke="#444444" stroke-width="1.5" stroke-linecap="round"/>
  <path d="M10 14.5V16.5" stroke="#444444" stroke-width="1.5" stroke-linecap="round"/>
</svg> 